<svg width="891" height="582" viewBox="0 0 891 582" fill="none" xmlns="http://www.w3.org/2000/svg">
<path d="M583.5 341.6H480.6V548H583.5V341.6Z" fill="#FFC299"/>
<path d="M583.5 341.6H480.6V548H583.5V341.6Z" fill="white"/>
<path opacity="0.34" d="M494.2 341.6H480.6V548H494.2V341.6Z" fill="#333333"/>
<path d="M583.5 341.6H480.6V548H583.5V341.6Z" stroke="#170E10" stroke-width="10" stroke-miterlimit="10" stroke-linecap="round" stroke-linejoin="round"/>
<path d="M497.4 503H569.3" stroke="#260005" stroke-width="6" stroke-miterlimit="10" stroke-linejoin="round"/>
<path d="M497.4 477H569.3" stroke="#260005" stroke-width="6" stroke-miterlimit="10" stroke-linejoin="round"/>
<path d="M497.4 451H569.3" stroke="#260005" stroke-width="6" stroke-miterlimit="10" stroke-linejoin="round"/>
<path d="M497.4 425H569.3" stroke="#260005" stroke-width="6" stroke-miterlimit="10" stroke-linejoin="round"/>
<path d="M497.4 399H569.3" stroke="#260005" stroke-width="6" stroke-miterlimit="10" stroke-linejoin="round"/>
<path d="M497.4 373H569.3" stroke="#260005" stroke-width="6" stroke-miterlimit="10" stroke-linejoin="round"/>
<path d="M482.8 260H334.8V548H482.8V260Z" fill="#9DD7CE"/>
<path opacity="0.69" d="M348.2 260H334.8V548H348.2V260Z" fill="#333333"/>
<path d="M302.8 99.7H254.8V63.7C254.8 57.1 260.2 51.7 266.8 51.7H290.8C297.4 51.7 302.8 57.1 302.8 63.7V99.7Z" fill="#C0BFBF"/>
<path opacity="0.69" d="M279.5 51.7H266.7C260.1 51.7 254.7 57.1 254.7 63.7V99.7H267.5V63.7C267.5 57.1 272.9 51.7 279.5 51.7Z" fill="#333333"/>
<path d="M302.8 99.7H254.8V63.7C254.8 57.1 260.2 51.7 266.8 51.7H290.8C297.4 51.7 302.8 57.1 302.8 63.7V99.7Z" stroke="#170E10" stroke-width="10" stroke-miterlimit="10" stroke-linecap="round" stroke-linejoin="round"/>
<path d="M279.2 52V5" stroke="#170E10" stroke-width="10" stroke-miterlimit="10" stroke-linecap="round" stroke-linejoin="round"/>
<path d="M862.2 548H885.8" stroke="#170E10" stroke-width="10" stroke-miterlimit="10" stroke-linecap="round" stroke-linejoin="round"/>
<path d="M642.7 548H845.1" stroke="#170E10" stroke-width="10" stroke-miterlimit="10" stroke-linecap="round" stroke-linejoin="round"/>
<path d="M609.2 548H618.2" stroke="#170E10" stroke-width="10" stroke-miterlimit="10" stroke-linecap="round" stroke-linejoin="round"/>
<path d="M115.7 548H594.7" stroke="#170E10" stroke-width="10" stroke-miterlimit="10" stroke-linecap="round" stroke-linejoin="round"/>
<path d="M91.9 548H100.3" stroke="#170E10" stroke-width="10" stroke-miterlimit="10" stroke-linecap="round" stroke-linejoin="round"/>
<path d="M5.5 548H75.2" stroke="#170E10" stroke-width="10" stroke-miterlimit="10" stroke-linecap="round" stroke-linejoin="round"/>
<path d="M334.8 167.1H222.8V548H334.8V167.1Z" fill="#C0BFBF"/>
<path opacity="0.69" d="M234.2 207.1H222.8V588H234.2V207.1Z" fill="#333333"/>
<path d="M335.2 167.1H223.2V548H335.2V167.1Z" stroke="#170E10" stroke-width="10" stroke-miterlimit="10" stroke-linecap="round" stroke-linejoin="round"/>
<path d="M242.6 465H315.6" stroke="#170E10" stroke-width="6" stroke-miterlimit="10" stroke-linejoin="round"/>
<path d="M242.6 477H315.6" stroke="#170E10" stroke-width="6" stroke-miterlimit="10" stroke-linejoin="round"/>
<path d="M242.6 431H315.6" stroke="#170E10" stroke-width="6" stroke-miterlimit="10" stroke-linejoin="round"/>
<path d="M242.6 443H315.6" stroke="#170E10" stroke-width="6" stroke-miterlimit="10" stroke-linejoin="round"/>
<path d="M242.6 397H315.6" stroke="#170E10" stroke-width="6" stroke-miterlimit="10" stroke-linejoin="round"/>
<path d="M242.6 409H315.6" stroke="#170E10" stroke-width="6" stroke-miterlimit="10" stroke-linejoin="round"/>
<path d="M242.6 363H315.6" stroke="#170E10" stroke-width="6" stroke-miterlimit="10" stroke-linejoin="round"/>
<path d="M242.6 375H315.6" stroke="#170E10" stroke-width="6" stroke-miterlimit="10" stroke-linejoin="round"/>
<path d="M242.6 329H315.6" stroke="#170E10" stroke-width="6" stroke-miterlimit="10" stroke-linejoin="round"/>
<path d="M242.6 341H315.6" stroke="#170E10" stroke-width="6" stroke-miterlimit="10" stroke-linejoin="round"/>
<path d="M242.6 295H315.6" stroke="#170E10" stroke-width="6" stroke-miterlimit="10" stroke-linejoin="round"/>
<path d="M242.6 307H315.6" stroke="#170E10" stroke-width="6" stroke-miterlimit="10" stroke-linejoin="round"/>
<path d="M242.6 261H315.6" stroke="#170E10" stroke-width="6" stroke-miterlimit="10" stroke-linejoin="round"/>
<path d="M242.6 273H315.6" stroke="#170E10" stroke-width="6" stroke-miterlimit="10" stroke-linejoin="round"/>
<path d="M242.6 227H315.6" stroke="#170E10" stroke-width="6" stroke-miterlimit="10" stroke-linejoin="round"/>
<path d="M242.6 239H315.6" stroke="#170E10" stroke-width="6" stroke-miterlimit="10" stroke-linejoin="round"/>
<path d="M242.6 193H315.6" stroke="#170E10" stroke-width="6" stroke-miterlimit="10" stroke-linejoin="round"/>
<path d="M242.6 205H315.6" stroke="#170E10" stroke-width="6" stroke-miterlimit="10" stroke-linejoin="round"/>
<path d="M316.2 167.1H242.2V124.1C242.2 103.7 258.8 87.1 279.2 87.1C299.6 87.1 316.2 103.7 316.2 124.1V167.1Z" fill="#C0BFBF"/>
<path opacity="0.69" d="M285.7 87.7C283.6 87.3 281.4 87.1 279.2 87.1C258.8 87.1 242.2 103.7 242.2 124.1V167.1H255.2V124.1C255.2 105.9 268.3 90.8 285.7 87.7Z" fill="#333333"/>
<path d="M316.2 167.1H242.2V124.1C242.2 103.7 258.8 87.1 279.2 87.1C299.6 87.1 316.2 103.7 316.2 124.1V167.1Z" stroke="#170E10" stroke-width="10" stroke-miterlimit="10" stroke-linecap="round" stroke-linejoin="round"/>
<path d="M483.2 260H335.2V548H483.2V260Z" stroke="#170E10" stroke-width="10" stroke-miterlimit="10" stroke-linecap="round" stroke-linejoin="round"/>
<path d="M487.9 240H335.2V260H487.9V240Z" fill="#BD2B3E"/>
<path d="M488.6 240H335.2V260H488.6V240Z" stroke="#170E10" stroke-width="10" stroke-miterlimit="10" stroke-linecap="round" stroke-linejoin="round"/>
<path d="M303.2 496.5H255.2V548H303.2V496.5Z" fill="white"/>
<path opacity="0.34" d="M303.2 498.5H255.2V509H303.2V498.5Z" fill="#333333"/>
<path opacity="0.34" d="M266.3 509H255.2V548H266.3V509Z" fill="#333333"/>
<path d="M303.2 496.5H255.2V548H303.2V496.5Z" stroke="#170E10" stroke-width="10" stroke-miterlimit="10" stroke-linecap="round" stroke-linejoin="round"/>
<path d="M458.6 492V507" stroke="#170E10" stroke-width="10" stroke-miterlimit="10" stroke-linejoin="round"/>
<path d="M438.6 492V507" stroke="#170E10" stroke-width="10" stroke-miterlimit="10" stroke-linejoin="round"/>
<path d="M418.6 492V507" stroke="#170E10" stroke-width="10" stroke-miterlimit="10" stroke-linejoin="round"/>
<path d="M398.6 492V507" stroke="#170E10" stroke-width="10" stroke-miterlimit="10" stroke-linejoin="round"/>
<path d="M378.6 492V507" stroke="#170E10" stroke-width="10" stroke-miterlimit="10" stroke-linejoin="round"/>
<path d="M358.6 492V507" stroke="#170E10" stroke-width="10" stroke-miterlimit="10" stroke-linejoin="round"/>
<path d="M458.6 452V467" stroke="#170E10" stroke-width="10" stroke-miterlimit="10" stroke-linejoin="round"/>
<path d="M438.6 452V467" stroke="#170E10" stroke-width="10" stroke-miterlimit="10" stroke-linejoin="round"/>
<path d="M418.6 452V467" stroke="#170E10" stroke-width="10" stroke-miterlimit="10" stroke-linejoin="round"/>
<path d="M398.6 452V467" stroke="#170E10" stroke-width="10" stroke-miterlimit="10" stroke-linejoin="round"/>
<path d="M378.6 452V467" stroke="#170E10" stroke-width="10" stroke-miterlimit="10" stroke-linejoin="round"/>
<path d="M358.6 452V467" stroke="#170E10" stroke-width="10" stroke-miterlimit="10" stroke-linejoin="round"/>
<path d="M458.6 412V427" stroke="#170E10" stroke-width="10" stroke-miterlimit="10" stroke-linejoin="round"/>
<path d="M438.6 412V427" stroke="#170E10" stroke-width="10" stroke-miterlimit="10" stroke-linejoin="round"/>
<path d="M418.6 412V427" stroke="#170E10" stroke-width="10" stroke-miterlimit="10" stroke-linejoin="round"/>
<path d="M398.6 412V427" stroke="#170E10" stroke-width="10" stroke-miterlimit="10" stroke-linejoin="round"/>
<path d="M378.6 412V427" stroke="#170E10" stroke-width="10" stroke-miterlimit="10" stroke-linejoin="round"/>
<path d="M358.6 412V427" stroke="#170E10" stroke-width="10" stroke-miterlimit="10" stroke-linejoin="round"/>
<path d="M458.6 372V387" stroke="#170E10" stroke-width="10" stroke-miterlimit="10" stroke-linejoin="round"/>
<path d="M438.6 372V387" stroke="#170E10" stroke-width="10" stroke-miterlimit="10" stroke-linejoin="round"/>
<path d="M418.6 372V387" stroke="#170E10" stroke-width="10" stroke-miterlimit="10" stroke-linejoin="round"/>
<path d="M398.6 372V387" stroke="#170E10" stroke-width="10" stroke-miterlimit="10" stroke-linejoin="round"/>
<path d="M378.6 372V387" stroke="#170E10" stroke-width="10" stroke-miterlimit="10" stroke-linejoin="round"/>
<path d="M358.6 372V387" stroke="#170E10" stroke-width="10" stroke-miterlimit="10" stroke-linejoin="round"/>
<path d="M458.6 332V347" stroke="#170E10" stroke-width="10" stroke-miterlimit="10" stroke-linejoin="round"/>
<path d="M438.6 332V347" stroke="#170E10" stroke-width="10" stroke-miterlimit="10" stroke-linejoin="round"/>
<path d="M418.6 332V347" stroke="#170E10" stroke-width="10" stroke-miterlimit="10" stroke-linejoin="round"/>
<path d="M398.6 332V347" stroke="#170E10" stroke-width="10" stroke-miterlimit="10" stroke-linejoin="round"/>
<path d="M378.6 332V347" stroke="#170E10" stroke-width="10" stroke-miterlimit="10" stroke-linejoin="round"/>
<path d="M358.6 332V347" stroke="#170E10" stroke-width="10" stroke-miterlimit="10" stroke-linejoin="round"/>
<path d="M458.6 292V307" stroke="#170E10" stroke-width="10" stroke-miterlimit="10" stroke-linejoin="round"/>
<path d="M438.6 292V307" stroke="#170E10" stroke-width="10" stroke-miterlimit="10" stroke-linejoin="round"/>
<path d="M418.6 292V307" stroke="#170E10" stroke-width="10" stroke-miterlimit="10" stroke-linejoin="round"/>
<path d="M398.6 292V307" stroke="#170E10" stroke-width="10" stroke-miterlimit="10" stroke-linejoin="round"/>
<path d="M378.6 292V307" stroke="#170E10" stroke-width="10" stroke-miterlimit="10" stroke-linejoin="round"/>
<path d="M358.6 292V307" stroke="#170E10" stroke-width="10" stroke-miterlimit="10" stroke-linejoin="round"/>
<path d="M439.6 490.3H378.1V548H439.6V490.3Z" fill="#FFC299"/>
<path opacity="0.69" d="M439.6 490.3H378.1V503.7H439.6V490.3Z" fill="#333333"/>
<path opacity="0.69" d="M390.1 503.8H378.1V548H390.1V503.8Z" fill="#333333"/>
<path d="M439.6 490.3H378.1V548H439.6V490.3Z" stroke="#170E10" stroke-width="10" stroke-miterlimit="10" stroke-linecap="round" stroke-linejoin="round"/>
<path d="M222.1 260H161.5V548H222.1V260Z" fill="#BD2B3E"/>
<path opacity="0.53" d="M171.6 260H161.5V548H171.6V260Z" fill="#333333"/>
<path d="M222.1 260H161.5V548H222.1V260Z" stroke="#170E10" stroke-width="10" stroke-miterlimit="10" stroke-linecap="round" stroke-linejoin="round"/>
<path d="M178.6 452V467" stroke="#260005" stroke-width="4" stroke-miterlimit="10" stroke-linejoin="round"/>
<path opacity="0.36" d="M178.6 472V478" stroke="#FF99AA" stroke-width="4" stroke-miterlimit="10" stroke-linejoin="round"/>
<path d="M191.6 452V467" stroke="#260005" stroke-width="4" stroke-miterlimit="10" stroke-linejoin="round"/>
<path opacity="0.36" d="M191.6 472V478" stroke="#FF99AA" stroke-width="4" stroke-miterlimit="10" stroke-linejoin="round"/>
<path d="M204.6 452V467" stroke="#260005" stroke-width="4" stroke-miterlimit="10" stroke-linejoin="round"/>
<path opacity="0.36" d="M204.6 472V478" stroke="#FF99AA" stroke-width="4" stroke-miterlimit="10" stroke-linejoin="round"/>
<path d="M178.6 408V423" stroke="#260005" stroke-width="4" stroke-miterlimit="10" stroke-linejoin="round"/>
<path opacity="0.36" d="M178.6 428V434" stroke="#FF99AA" stroke-width="4" stroke-miterlimit="10" stroke-linejoin="round"/>
<path d="M191.6 408V423" stroke="#260005" stroke-width="4" stroke-miterlimit="10" stroke-linejoin="round"/>
<path opacity="0.36" d="M191.6 428V434" stroke="#FF99AA" stroke-width="4" stroke-miterlimit="10" stroke-linejoin="round"/>
<path d="M204.6 408V423" stroke="#260005" stroke-width="4" stroke-miterlimit="10" stroke-linejoin="round"/>
<path opacity="0.36" d="M204.6 428V434" stroke="#FF99AA" stroke-width="4" stroke-miterlimit="10" stroke-linejoin="round"/>
<path d="M178.6 364V379" stroke="#260005" stroke-width="4" stroke-miterlimit="10" stroke-linejoin="round"/>
<path opacity="0.36" d="M178.6 384V390" stroke="#FF99AA" stroke-width="4" stroke-miterlimit="10" stroke-linejoin="round"/>
<path d="M191.6 364V379" stroke="#260005" stroke-width="4" stroke-miterlimit="10" stroke-linejoin="round"/>
<path opacity="0.36" d="M191.6 384V390" stroke="#FF99AA" stroke-width="4" stroke-miterlimit="10" stroke-linejoin="round"/>
<path d="M204.6 364V379" stroke="#260005" stroke-width="4" stroke-miterlimit="10" stroke-linejoin="round"/>
<path opacity="0.36" d="M204.6 384V390" stroke="#FF99AA" stroke-width="4" stroke-miterlimit="10" stroke-linejoin="round"/>
<path d="M178.6 320V335" stroke="#260005" stroke-width="4" stroke-miterlimit="10" stroke-linejoin="round"/>
<path opacity="0.36" d="M178.6 340V346" stroke="#FF99AA" stroke-width="4" stroke-miterlimit="10" stroke-linejoin="round"/>
<path d="M191.6 320V335" stroke="#260005" stroke-width="4" stroke-miterlimit="10" stroke-linejoin="round"/>
<path opacity="0.36" d="M191.6 340V346" stroke="#FF99AA" stroke-width="4" stroke-miterlimit="10" stroke-linejoin="round"/>
<path d="M204.6 320V335" stroke="#260005" stroke-width="4" stroke-miterlimit="10" stroke-linejoin="round"/>
<path opacity="0.36" d="M204.6 340V346" stroke="#FF99AA" stroke-width="4" stroke-miterlimit="10" stroke-linejoin="round"/>
<path d="M178.6 276V291" stroke="#260005" stroke-width="4" stroke-miterlimit="10" stroke-linejoin="round"/>
<path opacity="0.36" d="M178.6 296V302" stroke="#FF99AA" stroke-width="4" stroke-miterlimit="10" stroke-linejoin="round"/>
<path d="M191.6 276V291" stroke="#260005" stroke-width="4" stroke-miterlimit="10" stroke-linejoin="round"/>
<path opacity="0.36" d="M191.6 296V302" stroke="#FF99AA" stroke-width="4" stroke-miterlimit="10" stroke-linejoin="round"/>
<path d="M204.6 276V291" stroke="#260005" stroke-width="4" stroke-miterlimit="10" stroke-linejoin="round"/>
<path opacity="0.36" d="M204.6 296V302" stroke="#FF99AA" stroke-width="4" stroke-miterlimit="10" stroke-linejoin="round"/>
<path d="M202.6 500H182.6V548H202.6V500Z" fill="white"/>
<path d="M202.6 500H182.6V548H202.6V500Z" stroke="#170E10" stroke-width="10" stroke-miterlimit="10" stroke-linecap="round" stroke-linejoin="round"/>
<path d="M465.6 193V237.7" stroke="#170E10" stroke-width="8" stroke-miterlimit="10" stroke-linecap="round" stroke-linejoin="round"/>
<path d="M455.9 202.3H475.9" stroke="#170E10" stroke-width="8" stroke-miterlimit="10" stroke-linecap="round" stroke-linejoin="round"/>
<path d="M449.4 215.3H483.2" stroke="#170E10" stroke-width="8" stroke-miterlimit="10" stroke-linecap="round" stroke-linejoin="round"/>
<path d="M753.6 548V371" stroke="#170E10" stroke-width="10" stroke-miterlimit="10" stroke-linecap="round" stroke-linejoin="round"/>
<path d="M715.6 381.2V371" stroke="#170E10" stroke-width="10" stroke-miterlimit="10" stroke-linecap="round" stroke-linejoin="round"/>
<path d="M715.6 371C715.6 360.5 724.1 352 734.6 352C745.1 352 753.6 360.5 753.6 371" stroke="#170E10" stroke-width="10" stroke-miterlimit="10" stroke-linecap="round" stroke-linejoin="round"/>
<path d="M733.1 399.3H698.1L715.6 379L733.1 399.3Z" stroke="#170E10" stroke-width="10" stroke-miterlimit="10" stroke-linecap="round" stroke-linejoin="round"/>
<path d="M138.1 548V373" stroke="#170E10" stroke-width="10" stroke-miterlimit="10" stroke-linecap="round" stroke-linejoin="round"/>
<path d="M100.1 381.9V373" stroke="#170E10" stroke-width="10" stroke-miterlimit="10" stroke-linecap="round" stroke-linejoin="round"/>
<path d="M100.1 373C100.1 362.5 108.6 354 119.1 354C129.6 354 138.1 362.5 138.1 373" stroke="#170E10" stroke-width="10" stroke-miterlimit="10" stroke-linecap="round" stroke-linejoin="round"/>
<path d="M117.6 401.3H82.6L100.1 381L117.6 401.3Z" fill="white"/>
<path d="M117.6 401.3H82.6L100.1 381L117.6 401.3Z" stroke="#170E10" stroke-width="10" stroke-miterlimit="10" stroke-linecap="round" stroke-linejoin="round"/>
<path d="M46.9 512.7C69.5436 512.7 87.9 487.225 87.9 455.8C87.9 424.375 69.5436 398.9 46.9 398.9C24.2563 398.9 5.89996 424.375 5.89996 455.8C5.89996 487.225 24.2563 512.7 46.9 512.7Z" fill="#FF6550"/>
<path opacity="0.53" d="M17.2 455.8C17.2 427.5 32.1 404.1 51.6 399.7C49.4 399.2 47.2 398.9 45 398.9C22.4 398.9 4 424.4 4 455.8C4 487.2 22.4 512.7 45 512.7C47.3 512.7 49.5 512.4 51.6 511.9C32 507.5 17.2 484.1 17.2 455.8Z" fill="#333333"/>
<path d="M46.9 512.7C69.5436 512.7 87.9 487.225 87.9 455.8C87.9 424.375 69.5436 398.9 46.9 398.9C24.2563 398.9 5.89996 424.375 5.89996 455.8C5.89996 487.225 24.2563 512.7 46.9 512.7Z" stroke="#170E10" stroke-width="10" stroke-miterlimit="10" stroke-linecap="round" stroke-linejoin="round"/>
<path d="M48.4 489.2L60.2 477.5" stroke="#170E10" stroke-width="10" stroke-miterlimit="10" stroke-linecap="round" stroke-linejoin="round"/>
<path d="M46.9 471.4L34.4 459.6" stroke="#170E10" stroke-width="10" stroke-miterlimit="10" stroke-linecap="round" stroke-linejoin="round"/>
<path d="M500.1 524.4C513.907 524.4 525.1 508.999 525.1 490C525.1 471.001 513.907 455.6 500.1 455.6C486.293 455.6 475.1 471.001 475.1 490C475.1 508.999 486.293 524.4 500.1 524.4Z" fill="#E97E1C"/>
<path opacity="0.53" d="M485.1 490C485.1 473.4 493.7 459.5 505.1 456.3C503.5 455.9 501.8 455.6 500.1 455.6C486.3 455.6 475.1 471 475.1 490C475.1 509 486.3 524.4 500.1 524.4C501.8 524.4 503.5 524.2 505.1 523.7C493.7 520.5 485.1 506.6 485.1 490Z" fill="#333333"/>
<path d="M500.1 524.4C513.907 524.4 525.1 508.999 525.1 490C525.1 471.001 513.907 455.6 500.1 455.6C486.293 455.6 475.1 471.001 475.1 490C475.1 508.999 486.293 524.4 500.1 524.4Z" stroke="#170E10" stroke-width="10" stroke-miterlimit="10" stroke-linecap="round" stroke-linejoin="round"/>
<path d="M703.4 457.2C707.2 492.7 680.3 507 665.7 506.1C651 507 624.2 492.7 628 457.2C634.8 422.8 649.7 396.2 665.7 396.3C681.6 396.2 696.6 422.8 703.4 457.2Z" fill="#D44644"/>
<path opacity="0.53" d="M675.3 504.1C660.6 505 633.8 490.7 637.6 455.2C643.2 426.6 654.6 403.3 667.4 396.4C666.8 396.3 666.3 396.3 665.7 396.3C649.7 396.1 634.7 422.7 628 457.2C624.2 492.7 651.1 507 665.7 506.1C669.2 506.3 673.3 505.7 677.5 504.1C676.7 504.2 676 504.2 675.3 504.1Z" fill="#333333"/>
<path d="M703.4 457.2C707.2 492.7 680.3 507 665.7 506.1C651 507 624.2 492.7 628 457.2C634.8 422.8 649.7 396.2 665.7 396.3C681.6 396.2 696.6 422.8 703.4 457.2Z" stroke="#170E10" stroke-width="10" stroke-miterlimit="10" stroke-linecap="round" stroke-linejoin="round"/>
<path d="M665.7 482.3L678.3 469.7" stroke="#170E10" stroke-width="10" stroke-miterlimit="10" stroke-linecap="round" stroke-linejoin="round"/>
<path d="M665.7 460.5L651.9 446.7" stroke="#170E10" stroke-width="10" stroke-miterlimit="10" stroke-linecap="round" stroke-linejoin="round"/>
<path d="M500.1 500.5V506.2V510.7V546.4" stroke="#170E10" stroke-width="10" stroke-miterlimit="10" stroke-linecap="round" stroke-linejoin="round"/>
<path d="M665.7 434.5V548" stroke="#170E10" stroke-width="10" stroke-miterlimit="10" stroke-linecap="round" stroke-linejoin="round"/>
<path d="M48.4 445V548" stroke="#170E10" stroke-width="10" stroke-miterlimit="10" stroke-linecap="round" stroke-linejoin="round"/>
<path d="M804.5 509.5C827.144 509.5 845.5 484.025 845.5 452.6C845.5 421.175 827.144 395.7 804.5 395.7C781.856 395.7 763.5 421.175 763.5 452.6C763.5 484.025 781.856 509.5 804.5 509.5Z" fill="#E97E1C"/>
<path opacity="0.53" d="M773.5 452.6C773.5 423.6 789.2 399.6 809.5 396.2C807.9 395.9 806.2 395.8 804.5 395.8C781.9 395.8 763.5 421.3 763.5 452.7C763.5 484.1 781.9 509.6 804.5 509.6C806.2 509.6 807.9 509.4 809.5 509.2C789.2 505.6 773.5 481.6 773.5 452.6Z" fill="#333333"/>
<path d="M804.5 509.5C827.144 509.5 845.5 484.025 845.5 452.6C845.5 421.175 827.144 395.7 804.5 395.7C781.856 395.7 763.5 421.175 763.5 452.6C763.5 484.025 781.856 509.5 804.5 509.5Z" stroke="#170E10" stroke-width="10" stroke-miterlimit="10" stroke-linecap="round" stroke-linejoin="round"/>
<path d="M806.1 491L817.8 479.3" stroke="#170E10" stroke-width="10" stroke-miterlimit="10" stroke-linecap="round" stroke-linejoin="round"/>
<path d="M804.5 473.1L792 461.4" stroke="#170E10" stroke-width="10" stroke-miterlimit="10" stroke-linecap="round" stroke-linejoin="round"/>
<path d="M806.1 446.7V547.6" stroke="#170E10" stroke-width="10" stroke-miterlimit="10" stroke-linecap="round" stroke-linejoin="round"/>
<path d="M267.9 130.7V167.1" stroke="#170E10" stroke-width="6" stroke-miterlimit="10" stroke-linejoin="round"/>
<path d="M289.6 130.7V167.1" stroke="#170E10" stroke-width="6" stroke-miterlimit="10" stroke-linejoin="round"/>
<path opacity="0.55" d="M46.6 426.5C48.533 426.5 50.1 424.933 50.1 423C50.1 421.067 48.533 419.5 46.6 419.5C44.667 419.5 43.1 421.067 43.1 423C43.1 424.933 44.667 426.5 46.6 426.5Z" fill="white"/>
<path opacity="0.55" d="M68.2 465.5C70.6852 465.5 72.7 463.485 72.7 461C72.7 458.515 70.6852 456.5 68.2 456.5C65.7147 456.5 63.7 458.515 63.7 461C63.7 463.485 65.7147 465.5 68.2 465.5Z" fill="white"/>
<path opacity="0.53" d="M64.7 441.7C67.1852 441.7 69.2 439.685 69.2 437.2C69.2 434.715 67.1852 432.7 64.7 432.7C62.2147 432.7 60.2 434.715 60.2 437.2C60.2 439.685 62.2147 441.7 64.7 441.7Z" fill="#333333"/>
<path opacity="0.53" d="M34.4 446.3C36.2225 446.3 37.7 444.823 37.7 443C37.7 441.177 36.2225 439.7 34.4 439.7C32.5774 439.7 31.1 441.177 31.1 443C31.1 444.823 32.5774 446.3 34.4 446.3Z" fill="#333333"/>
<path opacity="0.55" d="M497 476.3C498.325 476.3 499.4 475.226 499.4 473.9C499.4 472.575 498.325 471.5 497 471.5C495.675 471.5 494.6 472.575 494.6 473.9C494.6 475.226 495.675 476.3 497 476.3Z" fill="white"/>
<path opacity="0.53" d="M511.5 486.8C513.378 486.8 514.9 485.278 514.9 483.4C514.9 481.522 513.378 480 511.5 480C509.622 480 508.1 481.522 508.1 483.4C508.1 485.278 509.622 486.8 511.5 486.8Z" fill="#333333"/>
<path opacity="0.55" d="M664.2 427.4C665.525 427.4 666.6 426.325 666.6 425C666.6 423.675 665.525 422.6 664.2 422.6C662.874 422.6 661.8 423.675 661.8 425C661.8 426.325 662.874 427.4 664.2 427.4Z" fill="white"/>
<path opacity="0.55" d="M683.9 456.4C685.778 456.4 687.3 454.878 687.3 453C687.3 451.122 685.778 449.6 683.9 449.6C682.022 449.6 680.5 451.122 680.5 453C680.5 454.878 682.022 456.4 683.9 456.4Z" fill="white"/>
<path opacity="0.53" d="M678.7 437.9C680.578 437.9 682.1 436.378 682.1 434.5C682.1 432.622 680.578 431.1 678.7 431.1C676.822 431.1 675.3 432.622 675.3 434.5C675.3 436.378 676.822 437.9 678.7 437.9Z" fill="#333333"/>
<path opacity="0.53" d="M651.9 474.9C653.778 474.9 655.3 473.378 655.3 471.5C655.3 469.622 653.778 468.1 651.9 468.1C650.022 468.1 648.5 469.622 648.5 471.5C648.5 473.378 650.022 474.9 651.9 474.9Z" fill="#333333"/>
<path opacity="0.55" d="M819.7 441.3C822.296 441.3 824.4 439.196 824.4 436.6C824.4 434.004 822.296 431.9 819.7 431.9C817.104 431.9 815 434.004 815 436.6C815 439.196 817.104 441.3 819.7 441.3Z" fill="white"/>
<path opacity="0.53" d="M817.7 464.7C819.578 464.7 821.1 463.178 821.1 461.3C821.1 459.422 819.578 457.9 817.7 457.9C815.822 457.9 814.3 459.422 814.3 461.3C814.3 463.178 815.822 464.7 817.7 464.7Z" fill="#333333"/>
<path opacity="0.53" d="M801.5 429.2C803.378 429.2 804.9 427.678 804.9 425.8C804.9 423.922 803.378 422.4 801.5 422.4C799.622 422.4 798.1 423.922 798.1 425.8C798.1 427.678 799.622 429.2 801.5 429.2Z" fill="#333333"/>
<path d="M653.4 548C653.4 536.5 662.7 527.3 674.1 527.3C685.5 527.3 694.8 536.6 694.8 548H653.4Z" fill="#E97E1C"/>
<path opacity="0.53" d="M680.2 528.2C678.3 527.6 676.2 527.3 674 527.3C662.5 527.3 653.3 536.6 653.3 548H665.6C665.7 538.7 671.8 530.8 680.2 528.2Z" fill="#333333"/>
<path d="M653.4 548C653.4 536.5 662.7 527.3 674.1 527.3C685.5 527.3 694.8 536.6 694.8 548H653.4Z" stroke="#170E10" stroke-width="10" stroke-miterlimit="10" stroke-linecap="round" stroke-linejoin="round"/>
<path d="M679.6 548C679.6 531.5 692.9 518.2 709.4 518.2C725.9 518.2 739.2 531.5 739.2 548H679.6Z" fill="#D44644"/>
<path opacity="0.53" d="M715.1 518.8C713.2 518.4 711.3 518.2 709.3 518.2C692.8 518.2 679.5 531.5 679.5 548H691C691.1 533.5 701.4 521.4 715.1 518.8Z" fill="#333333"/>
<path d="M679.6 548C679.6 531.5 692.9 518.2 709.4 518.2C725.9 518.2 739.2 531.5 739.2 548H679.6Z" stroke="#170E10" stroke-width="10" stroke-miterlimit="10" stroke-linecap="round" stroke-linejoin="round"/>
</svg>
