<svg width="894" height="591" viewBox="0 0 894 591" fill="none" xmlns="http://www.w3.org/2000/svg">
<path d="M85.1997 585.6C77.1997 579.1 72.1997 569.2 72.1997 558.1C72.1997 538.6 87.9997 522.7 107.6 522.7C127.2 522.7 142.9 538.6 142.9 558.2C142.9 569.3 137.8 579.2 129.9 585.7L85.1997 585.6Z" fill="#72B579"/>
<path d="M85.1997 585.6C77.1997 579.1 72.1997 569.2 72.1997 558.1C72.1997 538.6 87.9997 522.7 107.6 522.7C127.2 522.7 142.9 538.6 142.9 558.2C142.9 569.3 137.8 579.2 129.9 585.7L85.1997 585.6Z" stroke="#464950" stroke-width="10" stroke-miterlimit="10" stroke-linecap="round" stroke-linejoin="round"/>
<path d="M570.2 585.2C581.964 585.2 591.5 565.814 591.5 541.9C591.5 517.986 581.964 498.6 570.2 498.6C558.436 498.6 548.9 517.986 548.9 541.9C548.9 565.814 558.436 585.2 570.2 585.2Z" fill="#AECC75"/>
<path opacity="0.51" d="M557.8 541.9C557.8 521.1 565 503.8 574.6 499.6C573.1 499 571.6 498.6 570.1 498.6C558.3 498.6 548.8 518 548.8 541.9C548.8 565.8 558.3 585.2 570.1 585.2C571.6 585.2 573.1 584.9 574.6 584.2C565 580 557.8 562.7 557.8 541.9Z" fill="#464950"/>
<path d="M570.2 585.2C581.964 585.2 591.5 565.814 591.5 541.9C591.5 517.986 581.964 498.6 570.2 498.6C558.436 498.6 548.9 517.986 548.9 541.9C548.9 565.814 558.436 585.2 570.2 585.2Z" stroke="#464950" stroke-width="10" stroke-miterlimit="10" stroke-linecap="round" stroke-linejoin="round"/>
<path d="M230.2 419.6L227.6 306.6H122.6L120 419.6L116.2 585.6H234L230.2 419.6Z" fill="#F03A47"/>
<path d="M183.4 453.4H230.5" stroke="#DD2A40" stroke-width="6" stroke-miterlimit="10"/>
<path opacity="0.85" d="M151.9 468.9H182.1" stroke="#464950" stroke-width="6" stroke-miterlimit="10" stroke-linejoin="round"/>
<path opacity="0.85" d="M217.1 481.6H232.2" stroke="#464950" stroke-width="6" stroke-miterlimit="10" stroke-linejoin="round"/>
<path opacity="0.85" d="M202 531.6H215.6" stroke="#464950" stroke-width="6" stroke-miterlimit="10" stroke-linejoin="round"/>
<path d="M215.6 513.8H230.5" stroke="#DD2A40" stroke-width="6" stroke-miterlimit="10"/>
<path d="M212.6 553.1H221.5" stroke="#DD2A40" stroke-width="6" stroke-miterlimit="10"/>
<path d="M148.6 432.6H230.5L230.2 419.6H146.8L148.6 432.6Z" fill="#DD2A40"/>
<path d="M116.2 585.6H149.9L154.8 315.6L227.8 315.4L227.6 306.6H122.6L120 419.6L116.2 585.6Z" fill="#DD2A40"/>
<path d="M336.5 373.3C382.119 373.3 419.1 336.319 419.1 290.7C419.1 245.081 382.119 208.1 336.5 208.1C290.881 208.1 253.9 245.081 253.9 290.7C253.9 336.319 290.881 373.3 336.5 373.3Z" fill="#50B893"/>
<path opacity="0.55" d="M269.1 290.7C269.1 247.6 302.1 212.2 344.2 208.4C341.7 208.2 339.2 208 336.6 208C291 208 254 245 254 290.6C254 336.2 291 373.2 336.6 373.2C339.2 373.2 341.7 373.1 344.2 372.8C302 369.2 269.1 333.8 269.1 290.7Z" fill="#464950"/>
<path d="M336.5 290.7V312.3V354.1" stroke="#464950" stroke-width="10" stroke-miterlimit="10" stroke-linecap="round" stroke-linejoin="round"/>
<path d="M366.9 303.9L336.5 322.4" stroke="#464950" stroke-width="10" stroke-miterlimit="10" stroke-linecap="round" stroke-linejoin="round"/>
<path d="M336.5 336.9L310.9 316.6" stroke="#464950" stroke-width="10" stroke-miterlimit="10" stroke-linecap="round" stroke-linejoin="round"/>
<path d="M336.5 373.3C382.119 373.3 419.1 336.319 419.1 290.7C419.1 245.081 382.119 208.1 336.5 208.1C290.881 208.1 253.9 245.081 253.9 290.7C253.9 336.319 290.881 373.3 336.5 373.3Z" stroke="#464950" stroke-width="10" stroke-miterlimit="10" stroke-linecap="round" stroke-linejoin="round"/>
<path d="M280.9 405.1C300.23 405.1 315.9 389.43 315.9 370.1C315.9 350.77 300.23 335.1 280.9 335.1C261.57 335.1 245.9 350.77 245.9 370.1C245.9 389.43 261.57 405.1 280.9 405.1Z" fill="#429977"/>
<path opacity="0.31" d="M258.8 370.1C258.8 353 271.1 338.7 287.4 335.7C285.3 335.3 283.2 335.1 281 335.1C261.7 335.1 246 350.8 246 370.1C246 389.4 261.7 405.1 281 405.1C283.2 405.1 285.3 404.9 287.4 404.5C271.1 401.5 258.8 387.2 258.8 370.1Z" fill="#464950"/>
<path d="M288.9 378.7L317.9 397.9" stroke="#464950" stroke-width="10" stroke-miterlimit="10" stroke-linecap="round" stroke-linejoin="round"/>
<path d="M280.9 405.1C300.23 405.1 315.9 389.43 315.9 370.1C315.9 350.77 300.23 335.1 280.9 335.1C261.57 335.1 245.9 350.77 245.9 370.1C245.9 389.43 261.57 405.1 280.9 405.1Z" stroke="#464950" stroke-width="10" stroke-miterlimit="10" stroke-linecap="round" stroke-linejoin="round"/>
<path d="M230.2 419.6L227.6 306.6H122.6L120 419.6L116.2 585.6H234L230.2 419.6Z" stroke="#464950" stroke-width="10" stroke-miterlimit="10" stroke-linecap="round" stroke-linejoin="round"/>
<path d="M245.9 420.6H104.3L120.8 395.6H229.4L245.9 420.6Z" fill="#5A646D"/>
<path d="M245.9 420.6H104.3L120.8 395.6H229.4L245.9 420.6Z" stroke="#464950" stroke-width="10" stroke-miterlimit="10" stroke-linecap="round" stroke-linejoin="round"/>
<path d="M165.6 370.6H140.6V343.1C140.6 336.2 146.2 330.6 153.1 330.6C160 330.6 165.6 336.2 165.6 343.1V370.6Z" fill="#F4FFC5"/>
<path d="M209.6 370.6H183.6V343.1C183.6 336.2 189.2 330.6 196.1 330.6H197.1C204 330.6 209.6 336.2 209.6 343.1V370.6Z" fill="#F4FFC5"/>
<path d="M153.1 330.6C146.2 330.6 140.6 336.2 140.6 343.1V354.1C140.6 347.2 146.2 341.6 153.1 341.6C160 341.6 165.6 347.2 165.6 354.1V343.1C165.6 336.2 160 330.6 153.1 330.6Z" fill="#B7C391"/>
<path d="M197.1 330.6H196.1C189.2 330.6 183.6 336.2 183.6 343.1V354.1C183.6 347.2 189.2 341.6 196.1 341.6H197.1C204 341.6 209.6 347.2 209.6 354.1V343.1C209.6 336.2 204 330.6 197.1 330.6Z" fill="#B7C391"/>
<path d="M165.6 370.6H140.6V343.1C140.6 336.2 146.2 330.6 153.1 330.6C160 330.6 165.6 336.2 165.6 343.1V370.6Z" stroke="#464950" stroke-width="10" stroke-miterlimit="10" stroke-linecap="round" stroke-linejoin="round"/>
<path d="M209.6 370.6H183.6V343.1C183.6 336.2 189.2 330.6 196.1 330.6H197.1C204 330.6 209.6 336.2 209.6 343.1V370.6Z" stroke="#464950" stroke-width="10" stroke-miterlimit="10" stroke-linecap="round" stroke-linejoin="round"/>
<path d="M240.1 306.6H110.1L175.1 243.2L240.1 306.6Z" fill="#5A646D"/>
<path d="M175.1 243.2L156.2 306.6H110.1L175.1 243.2Z" fill="#4C555C"/>
<path d="M240.1 306.6H110.1L175.1 243.2L240.1 306.6Z" stroke="#464950" stroke-width="10" stroke-miterlimit="10" stroke-linecap="round" stroke-linejoin="round"/>
<path d="M203.5 484.6H146.8V585.6H203.5V484.6Z" fill="#F4FFC5"/>
<path d="M203.5 484.6H146.8V497.4H203.5V484.6Z" fill="#B7C391"/>
<path d="M155.9 484.6H147.8V585.6H155.9V484.6Z" fill="#B7C391"/>
<path d="M203.5 484.6H146.8V585.6H203.5V484.6Z" stroke="#464950" stroke-width="10" stroke-miterlimit="10" stroke-linecap="round" stroke-linejoin="round"/>
<path d="M157 495.6L193.2 574.6" stroke="#464950" stroke-width="8" stroke-miterlimit="10" stroke-linecap="round" stroke-linejoin="round"/>
<path d="M193.2 495.6L157 574.6" stroke="#464950" stroke-width="8" stroke-miterlimit="10" stroke-linecap="round" stroke-linejoin="round"/>
<path d="M506.3 352L416 306.6L325.7 352L296.3 403.6V583.4H535.7V403.6L506.3 352Z" fill="#F03A47"/>
<path d="M506.3 352L416 306.6L325.7 352L296.3 403.6V583.4H535.7V403.6L506.3 352Z" fill="#F03A47"/>
<path opacity="0.92" d="M306.5 447H296.3V584.6H306.5V447Z" fill="#DD2A40"/>
<path opacity="0.92" d="M419 306.6L328.7 352L299.3 403.6V456L347.4 376.7L419 340.7L490.6 376.7L538.7 456V403.6L509.3 352L419 306.6Z" fill="#DD2A40"/>
<g opacity="0.4">
<g opacity="0.4">
<path opacity="0.4" d="M346.7 348.6H485.3" stroke="#464950" stroke-width="3" stroke-miterlimit="10" stroke-linecap="round" stroke-linejoin="round"/>
</g>
<g opacity="0.4">
<path opacity="0.4" d="M326.4 366.6H505.6" stroke="#464950" stroke-width="3" stroke-miterlimit="10" stroke-linecap="round" stroke-linejoin="round"/>
</g>
<g opacity="0.4">
<path opacity="0.4" d="M315.1 384.6H516.9" stroke="#464950" stroke-width="3" stroke-miterlimit="10" stroke-linecap="round" stroke-linejoin="round"/>
</g>
<g opacity="0.4">
<path opacity="0.4" d="M303.8 402.6H528.2" stroke="#464950" stroke-width="3" stroke-miterlimit="10" stroke-linecap="round" stroke-linejoin="round"/>
</g>
<g opacity="0.4">
<path opacity="0.4" d="M296.3 420.6H535.7" stroke="#464950" stroke-width="3" stroke-miterlimit="10" stroke-linecap="round" stroke-linejoin="round"/>
</g>
<g opacity="0.4">
<path opacity="0.4" d="M296.3 438.6H535.7" stroke="#464950" stroke-width="3" stroke-miterlimit="10" stroke-linecap="round" stroke-linejoin="round"/>
</g>
<g opacity="0.4">
<path opacity="0.4" d="M296.3 456.6H535.7" stroke="#464950" stroke-width="3" stroke-miterlimit="10" stroke-linecap="round" stroke-linejoin="round"/>
</g>
<g opacity="0.4">
<path opacity="0.4" d="M296.3 474.6H535.7" stroke="#464950" stroke-width="3" stroke-miterlimit="10" stroke-linecap="round" stroke-linejoin="round"/>
</g>
<g opacity="0.4">
<path opacity="0.4" d="M296.3 492.6H535.7" stroke="#464950" stroke-width="3" stroke-miterlimit="10" stroke-linecap="round" stroke-linejoin="round"/>
</g>
<g opacity="0.4">
<path opacity="0.4" d="M296.3 510.6H535.7" stroke="#464950" stroke-width="3" stroke-miterlimit="10" stroke-linecap="round" stroke-linejoin="round"/>
</g>
<g opacity="0.4">
<path opacity="0.4" d="M296.3 528.6H535.7" stroke="#464950" stroke-width="3" stroke-miterlimit="10" stroke-linecap="round" stroke-linejoin="round"/>
</g>
<g opacity="0.4">
<path opacity="0.4" d="M296.3 546.6H535.7" stroke="#464950" stroke-width="3" stroke-miterlimit="10" stroke-linecap="round" stroke-linejoin="round"/>
</g>
<g opacity="0.4">
<path opacity="0.4" d="M296.3 564.6H535.7" stroke="#464950" stroke-width="3" stroke-miterlimit="10" stroke-linecap="round" stroke-linejoin="round"/>
</g>
</g>
<path d="M535.7 447H296.3V456.8H535.7V447Z" fill="#DD2A40"/>
<g opacity="0.97">
<g opacity="0.97">
<path opacity="0.97" d="M346.7 351.6H485.3" stroke="#464950" stroke-width="3" stroke-miterlimit="10" stroke-linecap="round" stroke-linejoin="round"/>
</g>
<g opacity="0.97">
<path opacity="0.97" d="M326.4 369.6H505.6" stroke="#464950" stroke-width="3" stroke-miterlimit="10" stroke-linecap="round" stroke-linejoin="round"/>
</g>
<g opacity="0.97">
<path opacity="0.97" d="M315.1 387.6H516.9" stroke="#464950" stroke-width="3" stroke-miterlimit="10" stroke-linecap="round" stroke-linejoin="round"/>
</g>
<g opacity="0.97">
<path opacity="0.97" d="M303.8 405.6H528.2" stroke="#464950" stroke-width="3" stroke-miterlimit="10" stroke-linecap="round" stroke-linejoin="round"/>
</g>
<g opacity="0.97">
<path opacity="0.97" d="M296.3 423.6H535.7" stroke="#464950" stroke-width="3" stroke-miterlimit="10" stroke-linecap="round" stroke-linejoin="round"/>
</g>
<g opacity="0.97">
<path opacity="0.97" d="M296.3 441.6H535.7" stroke="#464950" stroke-width="3" stroke-miterlimit="10" stroke-linecap="round" stroke-linejoin="round"/>
</g>
<g opacity="0.97">
<path opacity="0.97" d="M296.3 459.6H535.7" stroke="#464950" stroke-width="3" stroke-miterlimit="10" stroke-linecap="round" stroke-linejoin="round"/>
</g>
<g opacity="0.97">
<path opacity="0.97" d="M296.3 477.6H535.7" stroke="#464950" stroke-width="3" stroke-miterlimit="10" stroke-linecap="round" stroke-linejoin="round"/>
</g>
<g opacity="0.97">
<path opacity="0.97" d="M296.3 495.6H535.7" stroke="#464950" stroke-width="3" stroke-miterlimit="10" stroke-linecap="round" stroke-linejoin="round"/>
</g>
<g opacity="0.97">
<path opacity="0.97" d="M296.3 513.6H535.7" stroke="#464950" stroke-width="3" stroke-miterlimit="10" stroke-linecap="round" stroke-linejoin="round"/>
</g>
<g opacity="0.97">
<path opacity="0.97" d="M296.3 531.6H535.7" stroke="#464950" stroke-width="3" stroke-miterlimit="10" stroke-linecap="round" stroke-linejoin="round"/>
</g>
<g opacity="0.97">
<path opacity="0.97" d="M296.3 549.6H535.7" stroke="#464950" stroke-width="3" stroke-miterlimit="10" stroke-linecap="round" stroke-linejoin="round"/>
</g>
<g opacity="0.97">
<path opacity="0.97" d="M296.3 567.6H535.7" stroke="#464950" stroke-width="3" stroke-miterlimit="10" stroke-linecap="round" stroke-linejoin="round"/>
</g>
</g>
<path d="M506.3 352L416 306.6L325.7 352L296.3 403.6V583.4H535.7V403.6L506.3 352Z" stroke="#464950" stroke-width="10" stroke-miterlimit="10" stroke-linecap="round" stroke-linejoin="round"/>
<path d="M416 489.1H346.7V583.4H416V489.1Z" fill="#F4FFC5"/>
<path d="M416 489.1H346.7V583.4H416V489.1Z" fill="#F4FFC5"/>
<path d="M416 489.1H346.7V502.6H416V489.1Z" fill="#B7C391"/>
<path d="M355.9 489.1H346.7V582.3H355.9V489.1Z" fill="#B7C391"/>
<path d="M485.3 489.1H416V583.4H485.3V489.1Z" fill="#F4FFC5"/>
<path d="M485.3 489.1H416V502.6H485.3V489.1Z" fill="#B7C391"/>
<path d="M425.2 489.1H416V582.3H425.2V489.1Z" fill="#B7C391"/>
<path d="M416 489.1H346.7V583.4H416V489.1Z" stroke="#464950" stroke-width="10" stroke-miterlimit="10" stroke-linecap="round" stroke-linejoin="round"/>
<path d="M485.3 489.1H416V583.4H485.3V489.1Z" stroke="#464950" stroke-width="10" stroke-miterlimit="10" stroke-linecap="round" stroke-linejoin="round"/>
<path d="M446 366.6H386V426.6H446V366.6Z" fill="#F4FFC5"/>
<path d="M446 366.6H386V426.6H446V366.6Z" fill="#F4FFC5"/>
<path d="M446 366.6H386V377.1H446V366.6Z" fill="#B7C391"/>
<path d="M446 397.1H386V405.1H446V397.1Z" fill="#B7C391"/>
<path d="M446 366.6H386V426.6H446V366.6Z" stroke="#464950" stroke-width="10" stroke-miterlimit="10" stroke-linecap="round" stroke-linejoin="round"/>
<path d="M554.3 436.1L540.4 444L494.8 364.1L416 324.5L337.2 364.1L291.6 444L277.7 436.1L325.7 352L416 306.6L506.3 352L554.3 436.1Z" fill="#A58167"/>
<path d="M554.3 436.1L540.4 444L494.8 364.1L416 324.5L337.2 364.1L291.6 444L277.7 436.1L325.7 352L416 306.6L506.3 352L554.3 436.1Z" stroke="#464950" stroke-width="10" stroke-miterlimit="10" stroke-linecap="round" stroke-linejoin="round"/>
<path d="M684.5 509C710.126 509 730.9 471.437 730.9 425.1C730.9 378.763 710.126 341.2 684.5 341.2C658.874 341.2 638.1 378.763 638.1 425.1C638.1 471.437 658.874 509 684.5 509Z" fill="#AECC75"/>
<path opacity="0.51" d="M650.5 426.1C650.5 382.3 669.1 346.4 692.7 342.6C690 341.7 687.3 341.2 684.4 341.2C658.8 341.2 638 378.8 638 425.1C638 471.4 658.8 509 684.4 509C685.8 509 687.2 508.9 688.6 508.6C667 501.6 650.5 467.3 650.5 426.1Z" fill="#464950"/>
<path d="M684.5 509C710.126 509 730.9 471.437 730.9 425.1C730.9 378.763 710.126 341.2 684.5 341.2C658.874 341.2 638.1 378.763 638.1 425.1C638.1 471.437 658.874 509 684.5 509Z" stroke="#464950" stroke-width="10" stroke-miterlimit="10" stroke-linecap="round" stroke-linejoin="round"/>
<path d="M684.5 408.3V483.6V583.4" stroke="#464950" stroke-width="10" stroke-miterlimit="10" stroke-linecap="round" stroke-linejoin="round"/>
<path d="M842.1 349.1C851.4 381.6 851.5 412 840.6 435.8C830.1 459.4 808.7 476.5 783.3 476.3C757.8 476.5 736.4 459.4 726 435.8C715.2 411.9 715.2 381.5 724.5 349.1C746 284.2 761.7 229.6 783.3 229.6C804.9 229.5 820.6 284.2 842.1 349.1Z" fill="#72B579"/>
<path opacity="0.51" d="M761 434.7C765.473 434.7 769.1 431.073 769.1 426.6C769.1 422.126 765.473 418.5 761 418.5C756.526 418.5 752.9 422.126 752.9 426.6C752.9 431.073 756.526 434.7 761 434.7Z" fill="#464950"/>
<path opacity="0.38" d="M741.5 435.6C730.1 410.6 730.2 378.6 740 344.5C756.8 293.3 770.1 243.1 784.8 234.5C784.2 234.4 783.9 229.4 783.3 229.4C761.7 229.4 746 284.1 724.5 348.9C715.2 381.4 715.1 411.8 726 435.6C736.5 459.2 757.9 476.3 783.3 476.1C784.4 476.1 785.4 476.1 786.5 476C766.6 471 750.3 455.5 741.5 435.6Z" fill="#464950"/>
<path d="M842.1 349.1C851.4 381.6 851.5 412 840.6 435.8C830.1 459.4 808.7 476.5 783.3 476.3C757.8 476.5 736.4 459.4 726 435.8C715.2 411.9 715.2 381.5 724.5 349.1C746 284.2 761.7 229.6 783.3 229.6C804.9 229.5 820.6 284.2 842.1 349.1Z" stroke="#464950" stroke-width="10" stroke-miterlimit="10" stroke-linecap="round" stroke-linejoin="round"/>
<path d="M227.2 583.4C227.2 568.7 239.1 556.8 253.8 556.8C268.5 556.8 280.4 568.7 280.4 583.4H227.2Z" fill="#AECC75"/>
<path d="M227.2 583.4C227.2 568.7 239.1 556.8 253.8 556.8C268.5 556.8 280.4 568.7 280.4 583.4H227.2Z" stroke="#464950" stroke-width="10" stroke-miterlimit="10" stroke-linecap="round" stroke-linejoin="round"/>
<path d="M34.6997 585.4C34.6997 570.7 46.5997 558.8 61.2997 558.8C75.9997 558.8 87.8997 570.7 87.8997 585.4H34.6997Z" fill="#AECC75"/>
<path d="M34.6997 585.4C34.6997 570.7 46.5997 558.8 61.2997 558.8C75.9997 558.8 87.8997 570.7 87.8997 585.4H34.6997Z" stroke="#464950" stroke-width="10" stroke-miterlimit="10" stroke-linecap="round" stroke-linejoin="round"/>
<path d="M507.2 454H537.7" stroke="#464950" stroke-width="10" stroke-miterlimit="10" stroke-linecap="round" stroke-linejoin="round"/>
<path d="M479.9 444H491.9" stroke="#464950" stroke-width="10" stroke-miterlimit="10" stroke-linecap="round" stroke-linejoin="round"/>
<path d="M291.6 444H466.6" stroke="#464950" stroke-width="10" stroke-miterlimit="10" stroke-linecap="round" stroke-linejoin="round"/>
<path d="M416 367.6V428.3" stroke="#464950" stroke-width="6" stroke-miterlimit="10" stroke-linecap="round" stroke-linejoin="round"/>
<path d="M444 396.6H388" stroke="#464950" stroke-width="6" stroke-miterlimit="10" stroke-linecap="round" stroke-linejoin="round"/>
<path d="M359 502.6L403.7 569.9" stroke="#464950" stroke-width="8" stroke-miterlimit="10" stroke-linecap="round" stroke-linejoin="round"/>
<path d="M403.7 502.6L359 569.9" stroke="#464950" stroke-width="8" stroke-miterlimit="10" stroke-linecap="round" stroke-linejoin="round"/>
<path d="M428.3 502.6L473 569.9" stroke="#464950" stroke-width="8" stroke-miterlimit="10" stroke-linecap="round" stroke-linejoin="round"/>
<path d="M473 502.6L428.3 569.9" stroke="#464950" stroke-width="8" stroke-miterlimit="10" stroke-linecap="round" stroke-linejoin="round"/>
<path opacity="0.76" d="M358.3 257.8C361.945 257.8 364.9 254.845 364.9 251.2C364.9 247.555 361.945 244.6 358.3 244.6C354.655 244.6 351.7 247.555 351.7 251.2C351.7 254.845 354.655 257.8 358.3 257.8Z" fill="#464950"/>
<path opacity="0.76" d="M316 255.5C322.793 255.5 328.3 249.993 328.3 243.2C328.3 236.407 322.793 230.9 316 230.9C309.207 230.9 303.7 236.407 303.7 243.2C303.7 249.993 309.207 255.5 316 255.5Z" fill="#464950"/>
<path opacity="0.76" d="M310.9 294.5C312.999 294.5 314.7 292.799 314.7 290.7C314.7 288.601 312.999 286.9 310.9 286.9C308.801 286.9 307.1 288.601 307.1 290.7C307.1 292.799 308.801 294.5 310.9 294.5Z" fill="#464950"/>
<path opacity="0.67" d="M285.7 290.4C290.118 290.4 293.7 286.818 293.7 282.4C293.7 277.982 290.118 274.4 285.7 274.4C281.281 274.4 277.7 277.982 277.7 282.4C277.7 286.818 281.281 290.4 285.7 290.4Z" fill="#464950"/>
<path opacity="0.67" d="M329.6 276C333.411 276 336.5 272.911 336.5 269.1C336.5 265.289 333.411 262.2 329.6 262.2C325.789 262.2 322.7 265.289 322.7 269.1C322.7 272.911 325.789 276 329.6 276Z" fill="#464950"/>
<path opacity="0.67" d="M386.4 288.8C388.167 288.8 389.6 287.367 389.6 285.6C389.6 283.833 388.167 282.4 386.4 282.4C384.633 282.4 383.2 283.833 383.2 285.6C383.2 287.367 384.633 288.8 386.4 288.8Z" fill="#464950"/>
<path d="M836.4 359.4C848.992 359.4 859.2 349.192 859.2 336.6C859.2 324.008 848.992 313.8 836.4 313.8C823.808 313.8 813.6 324.008 813.6 336.6C813.6 349.192 823.808 359.4 836.4 359.4Z" fill="#62A366"/>
<path opacity="0.3" d="M825.8 336.6C825.8 325.6 833.6 316.4 844 314.2C842.5 313.9 841 313.7 839.4 313.7C826.8 313.7 816.6 323.9 816.6 336.5C816.6 349.1 826.8 359.3 839.4 359.3C841 359.3 842.5 359.1 844 358.8C833.6 356.8 825.8 347.6 825.8 336.6Z" fill="#464950"/>
<path d="M836.4 359.4C848.992 359.4 859.2 349.192 859.2 336.6C859.2 324.008 848.992 313.8 836.4 313.8C823.808 313.8 813.6 324.008 813.6 336.6C813.6 349.192 823.808 359.4 836.4 359.4Z" stroke="#464950" stroke-width="10" stroke-miterlimit="10" stroke-linecap="round" stroke-linejoin="round"/>
<path d="M783.3 357.6V441.6V583.4" stroke="#464950" stroke-width="10" stroke-miterlimit="10" stroke-linecap="round" stroke-linejoin="round"/>
<path d="M721.5 584.3C721.5 555.1 745.2 531.4 774.4 531.4C803.6 531.4 827.3 555.1 827.3 584.3H721.5Z" fill="#72B579"/>
<path d="M721.5 584.3C721.5 555.1 745.2 531.4 774.4 531.4C803.6 531.4 827.3 555.1 827.3 584.3H721.5Z" fill="#72B579"/>
<path opacity="0.38" d="M783.7 532.2C780.7 531.7 777.6 531.4 774.4 531.4C745.2 531.4 721.5 555.1 721.5 584.3H740.2C740.2 558.3 758.9 536.6 783.7 532.2Z" fill="#464950"/>
<path d="M721.5 584.3C721.5 555.1 745.2 531.4 774.4 531.4C803.6 531.4 827.3 555.1 827.3 584.3H721.5Z" stroke="#464950" stroke-width="10" stroke-miterlimit="10" stroke-linecap="round" stroke-linejoin="round"/>
<path d="M813.5 423.6L783.3 449.6" stroke="#464950" stroke-width="10" stroke-miterlimit="10" stroke-linecap="round" stroke-linejoin="round"/>
<path d="M783.3 405.6L754.9 376.2" stroke="#464950" stroke-width="10" stroke-miterlimit="10" stroke-linecap="round" stroke-linejoin="round"/>
<path d="M703.4 466.3L684.5 483.6" stroke="#464950" stroke-width="10" stroke-miterlimit="10" stroke-linecap="round" stroke-linejoin="round"/>
<path d="M684.5 452.9L664.7 433.1" stroke="#464950" stroke-width="10" stroke-miterlimit="10" stroke-linecap="round" stroke-linejoin="round"/>
<path opacity="0.51" d="M705.8 441.9C709.611 441.9 712.7 438.811 712.7 435C712.7 431.189 709.611 428.1 705.8 428.1C701.989 428.1 698.9 431.189 698.9 435C698.9 438.811 701.989 441.9 705.8 441.9Z" fill="#464950"/>
<path opacity="0.51" d="M663.8 405C665.623 405 667.1 403.523 667.1 401.7C667.1 399.877 665.623 398.4 663.8 398.4C661.978 398.4 660.5 399.877 660.5 401.7C660.5 403.523 661.978 405 663.8 405Z" fill="#464950"/>
<path opacity="0.43" d="M682 384.4C686.087 384.4 689.4 381.087 689.4 377C689.4 372.913 686.087 369.6 682 369.6C677.913 369.6 674.6 372.913 674.6 377C674.6 381.087 677.913 384.4 682 384.4Z" fill="#C7CAD1"/>
<path opacity="0.43" d="M786.5 304.6C789.482 304.6 791.9 302.182 791.9 299.2C791.9 296.218 789.482 293.8 786.5 293.8C783.517 293.8 781.1 296.218 781.1 299.2C781.1 302.182 783.517 304.6 786.5 304.6Z" fill="#C7CAD1"/>
<path opacity="0.51" d="M800.9 368.6C803.937 368.6 806.4 366.138 806.4 363.1C806.4 360.062 803.937 357.6 800.9 357.6C797.862 357.6 795.4 360.062 795.4 363.1C795.4 366.138 797.862 368.6 800.9 368.6Z" fill="#464950"/>
<path opacity="0.43" d="M769.1 336.3C773.574 336.3 777.2 332.673 777.2 328.2C777.2 323.726 773.574 320.1 769.1 320.1C764.627 320.1 761 323.726 761 328.2C761 332.673 764.627 336.3 769.1 336.3Z" fill="#C7CAD1"/>
<path opacity="0.43" d="M812.2 396.2C816.453 396.2 819.9 392.753 819.9 388.5C819.9 384.247 816.453 380.8 812.2 380.8C807.947 380.8 804.5 384.247 804.5 388.5C804.5 392.753 807.947 396.2 812.2 396.2Z" fill="#C7CAD1"/>
<path opacity="0.43" d="M700.2 407.6C702.74 407.6 704.8 405.541 704.8 403C704.8 400.46 702.74 398.4 700.2 398.4C697.659 398.4 695.6 400.46 695.6 403C695.6 405.541 697.659 407.6 700.2 407.6Z" fill="#C7CAD1"/>
<path opacity="0.35" d="M665.3 458.8C667.178 458.8 668.7 457.278 668.7 455.4C668.7 453.522 667.178 452 665.3 452C663.422 452 661.9 453.522 661.9 455.4C661.9 457.278 663.422 458.8 665.3 458.8Z" fill="#C7CAD1"/>
<path d="M796.3 584.3C796.3 566.7 810.6 552.5 828.1 552.5C845.6 552.5 859.9 566.8 859.9 584.3H796.3Z" fill="#AECC75"/>
<path opacity="0.51" d="M836.7 553.6C834 552.8 831.1 552.4 828.1 552.4C810.5 552.4 796.3 566.7 796.3 584.2H813.6C813.5 569.7 823.3 557.4 836.7 553.6Z" fill="#464950"/>
<path d="M796.3 584.3C796.3 566.7 810.6 552.5 828.1 552.5C845.6 552.5 859.9 566.8 859.9 584.3H796.3Z" stroke="#464950" stroke-width="10" stroke-miterlimit="10" stroke-linecap="round" stroke-linejoin="round"/>
<path d="M200.4 575.4H339.5" stroke="#464950" stroke-width="10" stroke-miterlimit="10" stroke-linecap="round" stroke-linejoin="round"/>
<path d="M163.9 575.4H178.4" stroke="#464950" stroke-width="10" stroke-miterlimit="10" stroke-linecap="round" stroke-linejoin="round"/>
<path d="M339.5 548.3H219.1V555.3H339.5V548.3Z" stroke="#464950" stroke-width="7" stroke-miterlimit="10" stroke-linecap="round" stroke-linejoin="round"/>
<path d="M339.5 525.1H219.1V532.1H339.5V525.1Z" stroke="#464950" stroke-width="7" stroke-miterlimit="10" stroke-linecap="round" stroke-linejoin="round"/>
<path d="M290.2 575.4H271.2V502.4L280.7 491.8L290.2 502.4V575.4Z" fill="#A58167"/>
<path opacity="0.47" d="M280.2 507.4L288.5 498.2L283.7 492.8L274.2 503.4V576.4H280.2V507.4Z" fill="#A58167"/>
<path d="M290.2 575.4H271.2V502.4L280.7 491.8L290.2 502.4V575.4Z" stroke="#464950" stroke-width="10" stroke-miterlimit="10" stroke-linecap="round" stroke-linejoin="round"/>
<path d="M328.5 575.4H309.5V502.4L319 491.8L328.5 502.4V575.4Z" fill="#A58167"/>
<path opacity="0.47" d="M318.5 507.4L326.7 498.2L322 492.8L312.5 503.4V576.4H318.5V507.4Z" fill="#A58167"/>
<path d="M328.5 575.4H309.5V502.4L319 491.8L328.5 502.4V575.4Z" stroke="#464950" stroke-width="10" stroke-miterlimit="10" stroke-linecap="round" stroke-linejoin="round"/>
<path d="M251.5 575.4H232.5V502.4L242 491.8L251.5 502.4V575.4Z" fill="#A58167"/>
<path d="M251.5 575.4H232.5V502.4L242 491.8L251.5 502.4V575.4Z" fill="#A58167"/>
<path opacity="0.47" d="M241.5 507.4L249.8 498.2L245 492.8L235.5 503.4V576.4H241.5V507.4Z" fill="#A58167"/>
<path d="M251.5 575.4H232.5V502.4L242 491.8L251.5 502.4V575.4Z" stroke="#464950" stroke-width="10" stroke-miterlimit="10" stroke-linecap="round" stroke-linejoin="round"/>
<path opacity="0.67" d="M288.9 363.1C290.833 363.1 292.4 361.533 292.4 359.6C292.4 357.667 290.833 356.1 288.9 356.1C286.967 356.1 285.4 357.667 285.4 359.6C285.4 361.533 286.967 363.1 288.9 363.1Z" fill="#464950"/>
<path opacity="0.76" d="M269.4 372.9C272.603 372.9 275.2 370.303 275.2 367.1C275.2 363.897 272.603 361.3 269.4 361.3C266.197 361.3 263.6 363.897 263.6 367.1C263.6 370.303 266.197 372.9 269.4 372.9Z" fill="#464950"/>
<path opacity="0.43" d="M582.2 541.9C584.575 541.9 586.5 539.975 586.5 537.6C586.5 535.225 584.575 533.3 582.2 533.3C579.825 533.3 577.9 535.225 577.9 537.6C577.9 539.975 579.825 541.9 582.2 541.9Z" fill="#C7CAD1"/>
<path opacity="0.51" d="M570.2 528.9C572.133 528.9 573.7 527.333 573.7 525.4C573.7 523.467 572.133 521.9 570.2 521.9C568.267 521.9 566.7 523.467 566.7 525.4C566.7 527.333 568.267 528.9 570.2 528.9Z" fill="#464950"/>
<path d="M8.19971 585.6H888.5" stroke="#DEDFE1" stroke-width="10" stroke-miterlimit="10" stroke-linecap="round" stroke-linejoin="round"/>
<path d="M658.5 584.8C658.3 583.3 658.3 581.8 658.5 580.2C659.8 568.6 670.2 560.2 681.8 561.4C693.4 562.7 701.8 573.1 700.6 584.7L658.5 584.8Z" fill="#AECC75"/>
<path d="M658.5 584.8C658.3 583.3 658.3 581.8 658.5 580.2C659.8 568.6 670.2 560.2 681.8 561.4C693.4 562.7 701.8 573.1 700.6 584.7L658.5 584.8Z" stroke="#9D9FA4" stroke-width="10" stroke-miterlimit="10" stroke-linecap="round" stroke-linejoin="round"/>
<path d="M631.7 586.1C631.6 585.6 631.6 585.2 631.6 584.7C631.6 578.3 636.8 573.1 643.2 573.1C649.6 573.1 654.8 578.3 654.8 584.7C654.8 585.3 654.8 585.9 654.7 586.4L631.7 586.1Z" fill="#9D9FA4"/>
<path d="M535.8 585.4C535.7 584.7 535.7 584.1 535.7 583.4C535.7 573.9 543.4 566.2 552.9 566.2C562.4 566.2 570.1 573.9 570.1 583.4C570.1 584.3 570 585.1 569.9 586L535.8 585.4Z" fill="#9D9FA4"/>
<path d="M672.8 64.7C660.6 64.7 650.4 73.1999 647.8 84.5999C643.2 77.3999 635.2 72.7 626.1 72.7C622.2 72.7 618.4 73.6 615.1 75.2" stroke="#F0F3F9" stroke-width="10" stroke-miterlimit="10" stroke-linecap="round" stroke-linejoin="round"/>
<path d="M715.7 96.5C706.5 96.5 698.8 102.9 696.8 111.5C693.4 106.1 687.3 102.5 680.5 102.5C677.5 102.5 674.7 103.2 672.2 104.4" stroke="#F0F3F9" stroke-width="10" stroke-miterlimit="10" stroke-linecap="round" stroke-linejoin="round"/>
<path d="M120.7 123.8C107.4 125.4 97.1999 136.7 97.1999 150.4C97.1999 151.1 97.1999 151.7 97.2999 152.4H73.8999" stroke="#F0F3F9" stroke-width="10" stroke-miterlimit="10" stroke-linecap="round" stroke-linejoin="round"/>
<path d="M120.7 123.8C121.5 104 137.9 88.2 157.9 88.2C176.2 88.2 191.4 101.4 194.5 118.8" stroke="#F0F3F9" stroke-width="10" stroke-miterlimit="10" stroke-linecap="round" stroke-linejoin="round"/>
<path d="M179.4 128.4C185.4 121.6 194.3 117.3 204.1 117.3C222.3 117.3 237.1 132.1 237.1 150.3C237.1 151 237.1 151.6 237 152.3H270.2" stroke="#F0F3F9" stroke-width="10" stroke-miterlimit="10" stroke-linecap="round" stroke-linejoin="round"/>
<path d="M831.3 29.9C840.6 31 847.7 38.9 847.7 48.5C847.7 49 847.7 49.4 847.6 49.9H863.9" stroke="#F0F3F9" stroke-width="10" stroke-miterlimit="10" stroke-linecap="round" stroke-linejoin="round"/>
<path d="M831.3 29.9C830.7 16 819.3 5 805.3 5C792.5 5 781.9 14.2 779.7 26.4" stroke="#F0F3F9" stroke-width="10" stroke-miterlimit="10" stroke-linecap="round" stroke-linejoin="round"/>
<path d="M790.2 33.1C786 28.4 779.8 25.4 773 25.4C760.3 25.4 749.9 35.7 749.9 48.5C749.9 49 749.9 49.4 749.9 49.9H726.7" stroke="#F0F3F9" stroke-width="10" stroke-miterlimit="10" stroke-linecap="round" stroke-linejoin="round"/>
<path d="M680.4 255.6H717.6" stroke="#F0F3F9" stroke-width="10" stroke-miterlimit="10" stroke-linecap="round" stroke-linejoin="round"/>
<path d="M652.2 255.6H660.6" stroke="#F0F3F9" stroke-width="10" stroke-miterlimit="10" stroke-linecap="round" stroke-linejoin="round"/>
<path d="M715.7 282.4H780.1" stroke="#F0F3F9" stroke-width="10" stroke-miterlimit="10" stroke-linecap="round" stroke-linejoin="round"/>
<path d="M685.6 282.4H699" stroke="#F0F3F9" stroke-width="10" stroke-miterlimit="10" stroke-linecap="round" stroke-linejoin="round"/>
<path d="M570.2 303.9H626.3" stroke="#F0F3F9" stroke-width="10" stroke-miterlimit="10" stroke-linecap="round" stroke-linejoin="round"/>
<path d="M603.5 282.4H648.2" stroke="#F0F3F9" stroke-width="10" stroke-miterlimit="10" stroke-linecap="round" stroke-linejoin="round"/>
<path d="M393.6 251.2H438.4" stroke="#F0F3F9" stroke-width="10" stroke-miterlimit="10" stroke-linecap="round" stroke-linejoin="round"/>
<path d="M438.4 282.4H460.8" stroke="#F0F3F9" stroke-width="10" stroke-miterlimit="10" stroke-linecap="round" stroke-linejoin="round"/>
<path d="M5 233.8H57.5" stroke="#F0F3F9" stroke-width="10" stroke-miterlimit="10" stroke-linecap="round" stroke-linejoin="round"/>
<path d="M702.8 241.1C702.8 233.1 709.3 226.6 717.3 226.6C725.3 226.6 731.8 233.1 731.8 241.1C731.8 249.1 725.3 255.6 717.3 255.6" stroke="#F0F3F9" stroke-width="10" stroke-miterlimit="10" stroke-linecap="round" stroke-linejoin="round"/>
<path d="M614.1 316.1C614.1 322.8 619.5 328.2 626.2 328.2C632.9 328.2 638.3 322.8 638.3 316.1C638.3 309.4 632.9 304 626.2 304" stroke="#F0F3F9" stroke-width="10" stroke-miterlimit="10" stroke-linecap="round" stroke-linejoin="round"/>
<path d="M76.6997 255.6H101.7" stroke="#F0F3F9" stroke-width="10" stroke-miterlimit="10" stroke-linecap="round" stroke-linejoin="round"/>
<path d="M35.3999 255.6H57.4999" stroke="#F0F3F9" stroke-width="10" stroke-miterlimit="10" stroke-linecap="round" stroke-linejoin="round"/>
<path d="M86.8999 241.1C86.8999 233.1 93.3999 226.6 101.4 226.6C109.4 226.6 115.9 233.1 115.9 241.1C115.9 249.1 109.4 255.6 101.4 255.6" stroke="#F0F3F9" stroke-width="10" stroke-miterlimit="10" stroke-linecap="round" stroke-linejoin="round"/>
<path d="M814.9 575.4H834.7" stroke="#464950" stroke-width="10" stroke-miterlimit="10" stroke-linecap="round" stroke-linejoin="round"/>
<path d="M849.1 575.4H853.5" stroke="#464950" stroke-width="10" stroke-miterlimit="10" stroke-linecap="round" stroke-linejoin="round"/>
<path d="M517.4 575.4H799.4" stroke="#464950" stroke-width="10" stroke-miterlimit="10" stroke-linecap="round" stroke-linejoin="round"/>
<path d="M488.9 575.4H499.9" stroke="#464950" stroke-width="10" stroke-miterlimit="10" stroke-linecap="round" stroke-linejoin="round"/>
<path d="M791.3 523.1H505.2V527.1H791.3V523.1Z" stroke="#464950" stroke-width="8" stroke-miterlimit="10" stroke-linecap="round" stroke-linejoin="round"/>
<path d="M794.3 546.3H508.2V553.3H794.3V546.3Z" stroke="#464950" stroke-width="8" stroke-miterlimit="10" stroke-linecap="round" stroke-linejoin="round"/>
<path d="M541.8 575.4H522.8V502.4L532.3 491.8L541.8 502.4V575.4Z" fill="#A58167"/>
<path opacity="0.47" d="M531.8 507.4L540.1 498.2L535.3 492.8L525.8 503.4V576.4H531.8V507.4Z" fill="#A58167"/>
<path d="M541.8 575.4H522.8V502.4L532.3 491.8L541.8 502.4V575.4Z" stroke="#464950" stroke-width="10" stroke-miterlimit="10" stroke-linecap="round" stroke-linejoin="round"/>
<path d="M637.4 575.4H618.4V502.4L627.9 491.8L637.4 502.4V575.4Z" fill="#A58167"/>
<path opacity="0.47" d="M627.4 507.4L635.7 498.2L630.9 492.8L621.4 503.4V576.4H627.4V507.4Z" fill="#A58167"/>
<path d="M685.2 575.4H666.2V502.4L675.7 491.8L685.2 502.4V575.4Z" fill="#A58167"/>
<path opacity="0.47" d="M674.2 506.4L682.5 497.2L677.7 491.8L668.2 502.4V575.4H674.2V506.4Z" fill="#A58167"/>
<path d="M589.6 575.4H570.6V502.4L580.1 491.8L589.6 502.4V575.4Z" fill="#A58167"/>
<path opacity="0.47" d="M579.6 507.4L587.9 498.2L583.1 492.8L573.6 503.4V576.4H579.6V507.4Z" fill="#A58167"/>
<path d="M637.4 575.4H618.4V502.4L627.9 491.8L637.4 502.4V575.4Z" stroke="#464950" stroke-width="10" stroke-miterlimit="10" stroke-linecap="round" stroke-linejoin="round"/>
<path d="M685.2 575.4H666.2V502.4L675.7 491.8L685.2 502.4V575.4Z" stroke="#464950" stroke-width="10" stroke-miterlimit="10" stroke-linecap="round" stroke-linejoin="round"/>
<path d="M589.6 575.4H570.6V502.4L580.1 491.8L589.6 502.4V575.4Z" stroke="#464950" stroke-width="10" stroke-miterlimit="10" stroke-linecap="round" stroke-linejoin="round"/>
<path d="M778.9 575.4H759.9V502.4L769.4 491.8L778.9 502.4V575.4Z" fill="#A58167"/>
<path opacity="0.47" d="M768.9 507.4L777.2 498.2L772.4 492.8L762.9 503.4V576.4H768.9V507.4Z" fill="#A58167"/>
<path d="M778.9 575.4H759.9V502.4L769.4 491.8L778.9 502.4V575.4Z" stroke="#464950" stroke-width="10" stroke-miterlimit="10" stroke-linecap="round" stroke-linejoin="round"/>
<path d="M732.5 575.4H713.5V502.4L723 491.8L732.5 502.4V575.4Z" fill="#A58167"/>
<path opacity="0.47" d="M722.5 507.4L730.8 498.2L726 492.8L716.5 503.4V576.4H722.5V507.4Z" fill="#A58167"/>
<path d="M732.5 575.4H713.5V502.4L723 491.8L732.5 502.4V575.4Z" stroke="#464950" stroke-width="10" stroke-miterlimit="10" stroke-linecap="round" stroke-linejoin="round"/>
</svg>
